<mxfile host="app.diagrams.net" agent="Mozilla/5.0 (Macintosh; Intel Mac OS X 10_15_7) AppleWebKit/537.36 (KHTML, like Gecko) Chrome/137.0.0.0 Safari/537.36 Edg/137.0.0.0" version="27.1.5">
  <diagram name="第 1 页" id="Zndd7S7p8hjrLO7gFXLt">
    <mxGraphModel dx="1418" dy="794" grid="1" gridSize="10" guides="1" tooltips="1" connect="1" arrows="1" fold="1" page="1" pageScale="1" pageWidth="827" pageHeight="1169" math="0" shadow="0">
      <root>
        <mxCell id="0" />
        <mxCell id="1" parent="0" />
        <mxCell id="mCO2VHHa_s-uEJgRqC7Z-11" value="" style="rounded=0;whiteSpace=wrap;html=1;dashed=1;dashPattern=8 8;" parent="1" vertex="1">
          <mxGeometry x="510" y="170" width="230" height="220" as="geometry" />
        </mxCell>
        <mxCell id="mCO2VHHa_s-uEJgRqC7Z-1" value="数梦平台" style="rounded=0;whiteSpace=wrap;html=1;" parent="1" vertex="1">
          <mxGeometry x="20" y="190" width="120" height="60" as="geometry" />
        </mxCell>
        <mxCell id="mCO2VHHa_s-uEJgRqC7Z-2" value="MySQL" style="rounded=0;whiteSpace=wrap;html=1;" parent="1" vertex="1">
          <mxGeometry x="270" y="190" width="120" height="60" as="geometry" />
        </mxCell>
        <mxCell id="mCO2VHHa_s-uEJgRqC7Z-3" value="user2groups.txt" style="rounded=0;whiteSpace=wrap;html=1;" parent="1" vertex="1">
          <mxGeometry x="540" y="190" width="120" height="60" as="geometry" />
        </mxCell>
        <mxCell id="mCO2VHHa_s-uEJgRqC7Z-4" value="NameNode" style="rounded=0;whiteSpace=wrap;html=1;" parent="1" vertex="1">
          <mxGeometry x="540" y="320" width="120" height="60" as="geometry" />
        </mxCell>
        <mxCell id="mCO2VHHa_s-uEJgRqC7Z-5" value="" style="endArrow=classic;html=1;rounded=0;exitX=1;exitY=0.5;exitDx=0;exitDy=0;entryX=0;entryY=0.5;entryDx=0;entryDy=0;" parent="1" source="mCO2VHHa_s-uEJgRqC7Z-1" target="mCO2VHHa_s-uEJgRqC7Z-2" edge="1">
          <mxGeometry width="50" height="50" relative="1" as="geometry">
            <mxPoint x="390" y="430" as="sourcePoint" />
            <mxPoint x="440" y="380" as="targetPoint" />
          </mxGeometry>
        </mxCell>
        <mxCell id="mCO2VHHa_s-uEJgRqC7Z-6" value="读写用户组" style="text;html=1;align=center;verticalAlign=middle;resizable=0;points=[];autosize=1;strokeColor=none;fillColor=none;" parent="1" vertex="1">
          <mxGeometry x="140" y="190" width="80" height="30" as="geometry" />
        </mxCell>
        <mxCell id="mCO2VHHa_s-uEJgRqC7Z-8" value="" style="endArrow=classic;html=1;rounded=0;exitX=1;exitY=0.5;exitDx=0;exitDy=0;" parent="1" source="mCO2VHHa_s-uEJgRqC7Z-2" target="mCO2VHHa_s-uEJgRqC7Z-3" edge="1">
          <mxGeometry width="50" height="50" relative="1" as="geometry">
            <mxPoint x="390" y="430" as="sourcePoint" />
            <mxPoint x="440" y="380" as="targetPoint" />
          </mxGeometry>
        </mxCell>
        <mxCell id="mCO2VHHa_s-uEJgRqC7Z-9" value="" style="endArrow=classic;html=1;rounded=0;exitX=0.5;exitY=1;exitDx=0;exitDy=0;" parent="1" source="mCO2VHHa_s-uEJgRqC7Z-3" target="mCO2VHHa_s-uEJgRqC7Z-4" edge="1">
          <mxGeometry width="50" height="50" relative="1" as="geometry">
            <mxPoint x="370" y="260" as="sourcePoint" />
            <mxPoint x="370" y="310" as="targetPoint" />
          </mxGeometry>
        </mxCell>
        <mxCell id="mCO2VHHa_s-uEJgRqC7Z-10" value="refreshUserToGroupMappings()" style="text;html=1;align=center;verticalAlign=middle;resizable=0;points=[];autosize=1;strokeColor=none;fillColor=none;" parent="1" vertex="1">
          <mxGeometry x="510" y="260" width="190" height="30" as="geometry" />
        </mxCell>
        <mxCell id="mCO2VHHa_s-uEJgRqC7Z-12" value="每1小时刷新一次" style="text;html=1;align=center;verticalAlign=middle;resizable=0;points=[];autosize=1;strokeColor=none;fillColor=none;" parent="1" vertex="1">
          <mxGeometry x="395" y="190" width="110" height="30" as="geometry" />
        </mxCell>
        <mxCell id="mCO2VHHa_s-uEJgRqC7Z-13" value="HDFS" style="text;html=1;align=center;verticalAlign=middle;resizable=0;points=[];autosize=1;strokeColor=none;fillColor=none;" parent="1" vertex="1">
          <mxGeometry x="680" y="180" width="60" height="30" as="geometry" />
        </mxCell>
        <mxCell id="mCO2VHHa_s-uEJgRqC7Z-22" value="读写权限验证" style="text;html=1;align=center;verticalAlign=middle;resizable=0;points=[];autosize=1;strokeColor=none;fillColor=none;" parent="1" vertex="1">
          <mxGeometry x="650" y="390" width="100" height="30" as="geometry" />
        </mxCell>
        <mxCell id="YEk1Js44NIQg5EEyhDJa-17" value="task" style="rounded=0;whiteSpace=wrap;html=1;" parent="1" vertex="1">
          <mxGeometry x="575" y="430" width="50" height="40" as="geometry" />
        </mxCell>
        <mxCell id="YEk1Js44NIQg5EEyhDJa-18" value="task" style="rounded=0;whiteSpace=wrap;html=1;" parent="1" vertex="1">
          <mxGeometry x="510" y="430" width="50" height="40" as="geometry" />
        </mxCell>
        <mxCell id="YEk1Js44NIQg5EEyhDJa-19" value="" style="endArrow=classic;html=1;rounded=0;entryX=0.25;entryY=1;entryDx=0;entryDy=0;exitX=0.5;exitY=0;exitDx=0;exitDy=0;dashed=1;dashPattern=1 2;" parent="1" source="YEk1Js44NIQg5EEyhDJa-18" edge="1">
          <mxGeometry width="50" height="50" relative="1" as="geometry">
            <mxPoint x="150" y="474.5" as="sourcePoint" />
            <mxPoint x="570" y="380" as="targetPoint" />
          </mxGeometry>
        </mxCell>
        <mxCell id="YEk1Js44NIQg5EEyhDJa-20" value="task" style="rounded=0;whiteSpace=wrap;html=1;" parent="1" vertex="1">
          <mxGeometry x="650" y="430" width="50" height="40" as="geometry" />
        </mxCell>
        <mxCell id="YEk1Js44NIQg5EEyhDJa-22" value="" style="endArrow=classic;html=1;rounded=0;entryX=0.75;entryY=1;entryDx=0;entryDy=0;exitX=0.5;exitY=0;exitDx=0;exitDy=0;dashed=1;dashPattern=1 2;" parent="1" source="YEk1Js44NIQg5EEyhDJa-20" edge="1">
          <mxGeometry width="50" height="50" relative="1" as="geometry">
            <mxPoint x="560" y="460" as="sourcePoint" />
            <mxPoint x="630" y="380" as="targetPoint" />
          </mxGeometry>
        </mxCell>
        <mxCell id="YEk1Js44NIQg5EEyhDJa-23" value="" style="endArrow=classic;html=1;rounded=0;entryX=0.5;entryY=1;entryDx=0;entryDy=0;exitX=0.5;exitY=0;exitDx=0;exitDy=0;dashed=1;dashPattern=1 2;" parent="1" source="YEk1Js44NIQg5EEyhDJa-17" edge="1">
          <mxGeometry width="50" height="50" relative="1" as="geometry">
            <mxPoint x="705" y="460" as="sourcePoint" />
            <mxPoint x="600" y="380" as="targetPoint" />
          </mxGeometry>
        </mxCell>
        <mxCell id="YEk1Js44NIQg5EEyhDJa-24" value="" style="rounded=0;whiteSpace=wrap;html=1;dashed=1;dashPattern=8 8;" parent="1" vertex="1">
          <mxGeometry x="500" y="530" width="230" height="200" as="geometry" />
        </mxCell>
        <mxCell id="YEk1Js44NIQg5EEyhDJa-25" value="数梦平台" style="rounded=0;whiteSpace=wrap;html=1;" parent="1" vertex="1">
          <mxGeometry x="10" y="550" width="120" height="60" as="geometry" />
        </mxCell>
        <mxCell id="YEk1Js44NIQg5EEyhDJa-26" value="MySQL" style="rounded=0;whiteSpace=wrap;html=1;" parent="1" vertex="1">
          <mxGeometry x="260" y="550" width="120" height="60" as="geometry" />
        </mxCell>
        <mxCell id="YEk1Js44NIQg5EEyhDJa-27" value="user2groups.txt" style="rounded=0;whiteSpace=wrap;html=1;" parent="1" vertex="1">
          <mxGeometry x="530" y="550" width="120" height="60" as="geometry" />
        </mxCell>
        <mxCell id="YEk1Js44NIQg5EEyhDJa-28" value="NameNode" style="rounded=0;whiteSpace=wrap;html=1;" parent="1" vertex="1">
          <mxGeometry x="530" y="660" width="120" height="60" as="geometry" />
        </mxCell>
        <mxCell id="YEk1Js44NIQg5EEyhDJa-29" value="" style="endArrow=classic;html=1;rounded=0;exitX=1;exitY=0.5;exitDx=0;exitDy=0;entryX=0;entryY=0.5;entryDx=0;entryDy=0;" parent="1" source="YEk1Js44NIQg5EEyhDJa-25" target="YEk1Js44NIQg5EEyhDJa-26" edge="1">
          <mxGeometry width="50" height="50" relative="1" as="geometry">
            <mxPoint x="380" y="790" as="sourcePoint" />
            <mxPoint x="430" y="740" as="targetPoint" />
          </mxGeometry>
        </mxCell>
        <mxCell id="YEk1Js44NIQg5EEyhDJa-30" value="读写用户组" style="text;html=1;align=center;verticalAlign=middle;resizable=0;points=[];autosize=1;strokeColor=none;fillColor=none;" parent="1" vertex="1">
          <mxGeometry x="130" y="550" width="80" height="30" as="geometry" />
        </mxCell>
        <mxCell id="YEk1Js44NIQg5EEyhDJa-31" value="" style="endArrow=classic;html=1;rounded=0;exitX=1;exitY=0.5;exitDx=0;exitDy=0;" parent="1" source="YEk1Js44NIQg5EEyhDJa-26" target="YEk1Js44NIQg5EEyhDJa-27" edge="1">
          <mxGeometry width="50" height="50" relative="1" as="geometry">
            <mxPoint x="380" y="790" as="sourcePoint" />
            <mxPoint x="430" y="740" as="targetPoint" />
          </mxGeometry>
        </mxCell>
        <mxCell id="YEk1Js44NIQg5EEyhDJa-32" value="" style="endArrow=classic;html=1;rounded=0;exitX=0.5;exitY=1;exitDx=0;exitDy=0;" parent="1" source="YEk1Js44NIQg5EEyhDJa-27" target="YEk1Js44NIQg5EEyhDJa-28" edge="1">
          <mxGeometry width="50" height="50" relative="1" as="geometry">
            <mxPoint x="360" y="620" as="sourcePoint" />
            <mxPoint x="360" y="670" as="targetPoint" />
          </mxGeometry>
        </mxCell>
        <mxCell id="YEk1Js44NIQg5EEyhDJa-33" value="refreshUserToGroupMappings()" style="text;html=1;align=center;verticalAlign=middle;resizable=0;points=[];autosize=1;strokeColor=none;fillColor=none;" parent="1" vertex="1">
          <mxGeometry x="510" y="620" width="190" height="30" as="geometry" />
        </mxCell>
        <mxCell id="YEk1Js44NIQg5EEyhDJa-34" value="每1小时刷新一次" style="text;html=1;align=center;verticalAlign=middle;resizable=0;points=[];autosize=1;strokeColor=none;fillColor=none;" parent="1" vertex="1">
          <mxGeometry x="385" y="550" width="110" height="30" as="geometry" />
        </mxCell>
        <mxCell id="YEk1Js44NIQg5EEyhDJa-35" value="HDFS" style="text;html=1;align=center;verticalAlign=middle;resizable=0;points=[];autosize=1;strokeColor=none;fillColor=none;" parent="1" vertex="1">
          <mxGeometry x="670" y="540" width="60" height="30" as="geometry" />
        </mxCell>
        <mxCell id="YEk1Js44NIQg5EEyhDJa-36" value="读写权限验证" style="text;html=1;align=center;verticalAlign=middle;resizable=0;points=[];autosize=1;strokeColor=none;fillColor=none;" parent="1" vertex="1">
          <mxGeometry x="640" y="730" width="100" height="30" as="geometry" />
        </mxCell>
        <mxCell id="YEk1Js44NIQg5EEyhDJa-37" value="" style="edgeStyle=segmentEdgeStyle;endArrow=classic;html=1;curved=0;rounded=0;strokeColor=#FF9647;exitX=1.013;exitY=0.967;exitDx=0;exitDy=0;exitPerimeter=0;" parent="1" source="YEk1Js44NIQg5EEyhDJa-30" edge="1">
          <mxGeometry width="50" height="50" relative="1" as="geometry">
            <mxPoint x="210" y="590" as="sourcePoint" />
            <mxPoint x="530" y="690" as="targetPoint" />
            <Array as="points">
              <mxPoint x="210" y="579" />
              <mxPoint x="210" y="690" />
            </Array>
          </mxGeometry>
        </mxCell>
        <mxCell id="YEk1Js44NIQg5EEyhDJa-38" value="读写nn内存中的user2groups" style="text;html=1;align=center;verticalAlign=middle;resizable=0;points=[];autosize=1;strokeColor=none;fillColor=none;" parent="1" vertex="1">
          <mxGeometry x="250" y="660" width="180" height="30" as="geometry" />
        </mxCell>
        <mxCell id="YEk1Js44NIQg5EEyhDJa-39" value="task" style="rounded=0;whiteSpace=wrap;html=1;" parent="1" vertex="1">
          <mxGeometry x="565" y="770" width="50" height="40" as="geometry" />
        </mxCell>
        <mxCell id="YEk1Js44NIQg5EEyhDJa-40" value="task" style="rounded=0;whiteSpace=wrap;html=1;" parent="1" vertex="1">
          <mxGeometry x="500" y="770" width="50" height="40" as="geometry" />
        </mxCell>
        <mxCell id="YEk1Js44NIQg5EEyhDJa-41" value="" style="endArrow=classic;html=1;rounded=0;entryX=0.25;entryY=1;entryDx=0;entryDy=0;exitX=0.5;exitY=0;exitDx=0;exitDy=0;dashed=1;dashPattern=1 2;" parent="1" source="YEk1Js44NIQg5EEyhDJa-40" target="YEk1Js44NIQg5EEyhDJa-28" edge="1">
          <mxGeometry width="50" height="50" relative="1" as="geometry">
            <mxPoint x="140" y="814.5" as="sourcePoint" />
            <mxPoint x="420" y="814.5" as="targetPoint" />
          </mxGeometry>
        </mxCell>
        <mxCell id="YEk1Js44NIQg5EEyhDJa-42" value="task" style="rounded=0;whiteSpace=wrap;html=1;" parent="1" vertex="1">
          <mxGeometry x="640" y="770" width="50" height="40" as="geometry" />
        </mxCell>
        <mxCell id="YEk1Js44NIQg5EEyhDJa-43" value="" style="endArrow=classic;html=1;rounded=0;entryX=0.75;entryY=1;entryDx=0;entryDy=0;exitX=0.5;exitY=0;exitDx=0;exitDy=0;dashed=1;dashPattern=1 2;" parent="1" source="YEk1Js44NIQg5EEyhDJa-42" target="YEk1Js44NIQg5EEyhDJa-28" edge="1">
          <mxGeometry width="50" height="50" relative="1" as="geometry">
            <mxPoint x="550" y="800" as="sourcePoint" />
            <mxPoint x="565" y="740" as="targetPoint" />
          </mxGeometry>
        </mxCell>
        <mxCell id="YEk1Js44NIQg5EEyhDJa-44" value="" style="endArrow=classic;html=1;rounded=0;entryX=0.5;entryY=1;entryDx=0;entryDy=0;exitX=0.5;exitY=0;exitDx=0;exitDy=0;dashed=1;dashPattern=1 2;" parent="1" source="YEk1Js44NIQg5EEyhDJa-39" target="YEk1Js44NIQg5EEyhDJa-28" edge="1">
          <mxGeometry width="50" height="50" relative="1" as="geometry">
            <mxPoint x="695" y="800" as="sourcePoint" />
            <mxPoint x="650" y="750" as="targetPoint" />
          </mxGeometry>
        </mxCell>
        <mxCell id="JaQpb5AM8EqLyA6_vQZ3-1" value="每0.5小时刷新一次" style="text;html=1;align=center;verticalAlign=middle;resizable=0;points=[];autosize=1;strokeColor=none;fillColor=none;" vertex="1" parent="1">
          <mxGeometry x="540" y="280" width="120" height="30" as="geometry" />
        </mxCell>
        <mxCell id="JaQpb5AM8EqLyA6_vQZ3-2" value="" style="rounded=0;whiteSpace=wrap;html=1;dashed=1;dashPattern=8 8;" vertex="1" parent="1">
          <mxGeometry x="1290" y="530" width="230" height="220" as="geometry" />
        </mxCell>
        <mxCell id="JaQpb5AM8EqLyA6_vQZ3-3" value="数梦平台" style="rounded=0;whiteSpace=wrap;html=1;" vertex="1" parent="1">
          <mxGeometry x="800" y="550" width="120" height="60" as="geometry" />
        </mxCell>
        <mxCell id="JaQpb5AM8EqLyA6_vQZ3-4" value="MySQL" style="rounded=0;whiteSpace=wrap;html=1;" vertex="1" parent="1">
          <mxGeometry x="1050" y="550" width="120" height="60" as="geometry" />
        </mxCell>
        <mxCell id="JaQpb5AM8EqLyA6_vQZ3-5" value="user2groups.txt" style="rounded=0;whiteSpace=wrap;html=1;" vertex="1" parent="1">
          <mxGeometry x="1320" y="550" width="120" height="60" as="geometry" />
        </mxCell>
        <mxCell id="JaQpb5AM8EqLyA6_vQZ3-6" value="NameNode" style="rounded=0;whiteSpace=wrap;html=1;" vertex="1" parent="1">
          <mxGeometry x="1320" y="680" width="120" height="60" as="geometry" />
        </mxCell>
        <mxCell id="JaQpb5AM8EqLyA6_vQZ3-7" value="" style="endArrow=classic;html=1;rounded=0;exitX=1;exitY=0.5;exitDx=0;exitDy=0;entryX=0;entryY=0.5;entryDx=0;entryDy=0;" edge="1" parent="1" source="JaQpb5AM8EqLyA6_vQZ3-3" target="JaQpb5AM8EqLyA6_vQZ3-4">
          <mxGeometry width="50" height="50" relative="1" as="geometry">
            <mxPoint x="1170" y="790" as="sourcePoint" />
            <mxPoint x="1220" y="740" as="targetPoint" />
          </mxGeometry>
        </mxCell>
        <mxCell id="JaQpb5AM8EqLyA6_vQZ3-8" value="读写用户组" style="text;html=1;align=center;verticalAlign=middle;resizable=0;points=[];autosize=1;strokeColor=none;fillColor=none;" vertex="1" parent="1">
          <mxGeometry x="920" y="550" width="80" height="30" as="geometry" />
        </mxCell>
        <mxCell id="JaQpb5AM8EqLyA6_vQZ3-9" value="" style="endArrow=classic;html=1;rounded=0;exitX=1;exitY=0.5;exitDx=0;exitDy=0;" edge="1" parent="1" source="JaQpb5AM8EqLyA6_vQZ3-4" target="JaQpb5AM8EqLyA6_vQZ3-5">
          <mxGeometry width="50" height="50" relative="1" as="geometry">
            <mxPoint x="1170" y="790" as="sourcePoint" />
            <mxPoint x="1220" y="740" as="targetPoint" />
          </mxGeometry>
        </mxCell>
        <mxCell id="JaQpb5AM8EqLyA6_vQZ3-10" value="" style="endArrow=classic;html=1;rounded=0;exitX=0.5;exitY=1;exitDx=0;exitDy=0;" edge="1" parent="1" source="JaQpb5AM8EqLyA6_vQZ3-5" target="JaQpb5AM8EqLyA6_vQZ3-6">
          <mxGeometry width="50" height="50" relative="1" as="geometry">
            <mxPoint x="1150" y="620" as="sourcePoint" />
            <mxPoint x="1150" y="670" as="targetPoint" />
          </mxGeometry>
        </mxCell>
        <mxCell id="JaQpb5AM8EqLyA6_vQZ3-11" value="refreshUserToGroupMappings()" style="text;html=1;align=center;verticalAlign=middle;resizable=0;points=[];autosize=1;strokeColor=none;fillColor=none;" vertex="1" parent="1">
          <mxGeometry x="1290" y="620" width="190" height="30" as="geometry" />
        </mxCell>
        <mxCell id="JaQpb5AM8EqLyA6_vQZ3-12" value="每1小时刷新一次" style="text;html=1;align=center;verticalAlign=middle;resizable=0;points=[];autosize=1;strokeColor=none;fillColor=none;" vertex="1" parent="1">
          <mxGeometry x="1175" y="550" width="110" height="30" as="geometry" />
        </mxCell>
        <mxCell id="JaQpb5AM8EqLyA6_vQZ3-13" value="HDFS" style="text;html=1;align=center;verticalAlign=middle;resizable=0;points=[];autosize=1;strokeColor=none;fillColor=none;" vertex="1" parent="1">
          <mxGeometry x="1460" y="540" width="60" height="30" as="geometry" />
        </mxCell>
        <mxCell id="JaQpb5AM8EqLyA6_vQZ3-14" value="读写权限验证" style="text;html=1;align=center;verticalAlign=middle;resizable=0;points=[];autosize=1;strokeColor=none;fillColor=none;" vertex="1" parent="1">
          <mxGeometry x="1430" y="750" width="100" height="30" as="geometry" />
        </mxCell>
        <mxCell id="JaQpb5AM8EqLyA6_vQZ3-15" value="task" style="rounded=0;whiteSpace=wrap;html=1;" vertex="1" parent="1">
          <mxGeometry x="1355" y="790" width="50" height="40" as="geometry" />
        </mxCell>
        <mxCell id="JaQpb5AM8EqLyA6_vQZ3-16" value="task" style="rounded=0;whiteSpace=wrap;html=1;" vertex="1" parent="1">
          <mxGeometry x="1290" y="790" width="50" height="40" as="geometry" />
        </mxCell>
        <mxCell id="JaQpb5AM8EqLyA6_vQZ3-17" value="" style="endArrow=classic;html=1;rounded=0;entryX=0.25;entryY=1;entryDx=0;entryDy=0;exitX=0.5;exitY=0;exitDx=0;exitDy=0;dashed=1;dashPattern=1 2;" edge="1" parent="1" source="JaQpb5AM8EqLyA6_vQZ3-16">
          <mxGeometry width="50" height="50" relative="1" as="geometry">
            <mxPoint x="930" y="834.5" as="sourcePoint" />
            <mxPoint x="1350" y="740" as="targetPoint" />
          </mxGeometry>
        </mxCell>
        <mxCell id="JaQpb5AM8EqLyA6_vQZ3-18" value="task" style="rounded=0;whiteSpace=wrap;html=1;" vertex="1" parent="1">
          <mxGeometry x="1430" y="790" width="50" height="40" as="geometry" />
        </mxCell>
        <mxCell id="JaQpb5AM8EqLyA6_vQZ3-19" value="" style="endArrow=classic;html=1;rounded=0;entryX=0.75;entryY=1;entryDx=0;entryDy=0;exitX=0.5;exitY=0;exitDx=0;exitDy=0;dashed=1;dashPattern=1 2;" edge="1" parent="1" source="JaQpb5AM8EqLyA6_vQZ3-18">
          <mxGeometry width="50" height="50" relative="1" as="geometry">
            <mxPoint x="1340" y="820" as="sourcePoint" />
            <mxPoint x="1410" y="740" as="targetPoint" />
          </mxGeometry>
        </mxCell>
        <mxCell id="JaQpb5AM8EqLyA6_vQZ3-20" value="" style="endArrow=classic;html=1;rounded=0;entryX=0.5;entryY=1;entryDx=0;entryDy=0;exitX=0.5;exitY=0;exitDx=0;exitDy=0;dashed=1;dashPattern=1 2;" edge="1" parent="1" source="JaQpb5AM8EqLyA6_vQZ3-15">
          <mxGeometry width="50" height="50" relative="1" as="geometry">
            <mxPoint x="1485" y="820" as="sourcePoint" />
            <mxPoint x="1380" y="740" as="targetPoint" />
          </mxGeometry>
        </mxCell>
        <mxCell id="JaQpb5AM8EqLyA6_vQZ3-21" value="每0.5小时刷新一次" style="text;html=1;align=center;verticalAlign=middle;resizable=0;points=[];autosize=1;strokeColor=none;fillColor=none;" vertex="1" parent="1">
          <mxGeometry x="1320" y="640" width="120" height="30" as="geometry" />
        </mxCell>
        <mxCell id="JaQpb5AM8EqLyA6_vQZ3-22" value="" style="edgeStyle=segmentEdgeStyle;endArrow=classic;html=1;curved=0;rounded=0;strokeColor=#FF9647;" edge="1" parent="1">
          <mxGeometry width="50" height="50" relative="1" as="geometry">
            <mxPoint x="1020" y="580" as="sourcePoint" />
            <mxPoint x="1320" y="710.5" as="targetPoint" />
            <Array as="points">
              <mxPoint x="1020" y="600" />
              <mxPoint x="1020" y="711" />
            </Array>
          </mxGeometry>
        </mxCell>
        <mxCell id="JaQpb5AM8EqLyA6_vQZ3-23" value="读写nn内存中的user2groups" style="text;html=1;align=center;verticalAlign=middle;resizable=0;points=[];autosize=1;strokeColor=none;fillColor=none;" vertex="1" parent="1">
          <mxGeometry x="1040" y="680" width="180" height="30" as="geometry" />
        </mxCell>
      </root>
    </mxGraphModel>
  </diagram>
</mxfile>
